<svg xmlns="http://www.w3.org/2000/svg" x="0px" y="0px" width="50" height="50" viewBox="0 0 48 48">
<path d="M 24 3.9980469 C 12.972292 3.9980469 4 12.970339 4 23.998047 C 4 27.273363 4.8627078 30.334853 6.2617188 33.064453 L 4.09375 40.826172 C 3.5887973 42.629575 5.3719261 44.41261 7.1757812 43.908203 L 14.943359 41.740234 C 17.670736 43.136312 20.727751 43.998047 24 43.998047 C 35.027708 43.998047 44 35.025755 44 23.998047 C 44 12.970339 35.027708 3.9980469 24 3.9980469 z M 27.5 17 C 27.88375 17 28.267547 17.146453 28.560547 17.439453 L 34.560547 23.439453 C 35.145547 24.025453 35.145547 24.974547 34.560547 25.560547 L 28.560547 31.560547 C 28.267547 31.853547 27.884 32 27.5 32 C 27.116 32 26.731453 31.854547 26.439453 31.560547 C 25.853453 30.974547 25.853453 30.025453 26.439453 29.439453 L 29.878906 26 L 14.5 26 C 13.672 26 13 25.328 13 24.5 C 13 23.672 13.672 23 14.5 23 L 29.878906 23 L 26.439453 19.560547 C 25.853453 18.974547 25.853453 18.025453 26.439453 17.439453 C 26.732453 17.146453 27.11625 17 27.5 17 z"></path>
</svg>